<svg width="88" height="47" viewBox="0 0 88 47" fill="none" xmlns="http://www.w3.org/2000/svg">
<path d="M25.7704 16.533L25.8192 16.5808C27.4795 14.1935 29.8724 11.7584 32.7536 11.7583C36.8068 11.7583 39.9323 16.3898 39.9323 22.549C39.9322 29.854 35.9279 36.9204 29.0423 36.9204C27.7726 36.9204 26.7958 36.6339 25.8192 36.3474V42.0769C25.8192 44.2255 26.5029 45.2281 27.5773 45.8965V46.0398H19.8126V45.8965C20.8381 45.2281 21.5218 44.2254 21.5218 42.0769V18.395C21.5218 16.2465 21.0334 15.1006 19.7149 14.4322V14.2889C21.8148 14.2889 24.2566 13.1907 25.6239 11.7583H25.7704V16.533ZM18.7582 4.59657H4.9869L4.40083 13.2385C14.4607 11.5196 20.3208 18.1564 20.3208 25.1272C20.3208 31.7161 15.3886 37.2068 8.99133 37.2069C3.08242 37.2069 0.347675 33.8169 0.347656 31.2387C0.347656 29.7585 1.27549 28.3262 2.78934 28.3262C4.49853 28.3262 5.47526 29.9495 5.6706 32.3368C5.91477 34.8673 6.84259 36.2042 9.23544 36.2042C12.9468 36.2042 15.9258 33.1007 15.9258 27.5145C15.9258 19.6842 10.6516 16.151 3.13118 17.7743L2.93583 17.6311L4.10786 0.681396H19.0511L18.7582 4.59657ZM45.8449 14.7664C45.8449 15.6735 45.845 16.5807 45.7962 17.1059L45.8449 17.1537C47.8471 14.4799 51.1191 11.7583 53.8538 11.7583C56.5397 11.7584 58.2001 13.8592 58.2001 16.724L58.2488 17.1537C60.0207 14.7283 62.8776 12.2637 65.3978 11.8267C65.5837 15.3994 67.5794 18.5049 70.5062 20.2847V32.48C70.5062 34.1511 71.0922 35.488 72.1666 36.3474V36.4906H64.4019V36.3474C65.6228 35.3447 66.2088 34.1034 66.2088 32.5278V18.2996C66.2088 16.2942 65.3786 14.8618 63.5718 14.8618C62.3021 14.8618 60.2999 15.578 58.2001 17.7266V32.48C58.2001 34.1033 58.786 35.3447 59.9092 36.3474V36.4906H52.0958V36.3474C53.3166 35.3447 53.9027 34.1034 53.9027 32.5278V18.2996C53.9027 16.2943 53.0725 14.8619 51.2656 14.8618C49.9959 14.8618 47.9936 15.578 45.8449 17.7266V32.5278C45.845 34.1034 46.4798 35.3447 47.6518 36.3474V36.4906H39.6431V36.3474C40.8151 35.3925 41.5964 34.1034 41.5964 32.48V18.1086C41.5964 16.1033 41.0104 15.1483 39.6431 14.4322V14.2889C41.7918 14.2889 44.3311 13.2385 45.7473 11.7583H45.8449V14.7664ZM30.1166 14.7664C28.5539 14.7664 27.4307 15.4348 25.8192 17.1059V32.48C25.8192 34.8195 26.9913 36.1087 28.8958 36.1087C32.5095 36.1087 35.3907 31.0476 35.3419 24.22C35.293 18.1563 33.2419 14.7664 30.1166 14.7664ZM76.2229 0.681396C82.2092 0.681396 87.0622 5.42619 87.0622 11.2792C87.0622 17.1321 82.2092 21.8768 76.2229 21.8768C74.1247 21.8768 72.1658 21.2938 70.5062 20.2847V16.7716C70.5062 13.8592 68.9435 11.7583 66.1599 11.7583C65.9104 11.7584 65.6559 11.7819 65.3978 11.8267C65.3883 11.6453 65.3835 11.4628 65.3835 11.2792C65.3835 5.4262 70.2365 0.681415 76.2229 0.681396ZM80.231 8.2254C79.6753 8.76403 78.5149 9.23932 77.616 9.25518V9.30274C78.1553 9.54039 78.2697 10.1424 78.2697 10.7127V15.1486C78.2697 15.5077 78.1995 15.8183 78.0679 16.0644C77.9934 16.0871 77.9193 16.0992 77.8483 16.0992C77.5051 16.0991 77.2762 15.8298 77.2762 15.2912C77.2762 13.8495 77.3579 11.489 77.3579 10.1265C77.3579 8.9225 76.5081 8.28885 74.9554 8.28885C73.4354 8.28885 71.7357 9.16017 71.7357 10.3642C71.7357 10.8711 72.0789 11.2196 72.5365 11.2196C73.7949 11.2196 73.8277 8.7007 74.8737 8.70068C75.2169 8.70069 75.4294 9.00172 75.4294 9.50865C75.4294 10.0631 75.413 10.982 75.3967 11.98C72.7163 12.4236 71.4251 13.6436 71.4251 14.9902C71.4251 16.115 72.1769 16.7962 73.0268 16.7962C73.7786 16.7962 74.5632 16.3526 75.3313 15.4971H75.3477C75.3314 16.4318 75.9688 16.812 76.6879 16.812C77.0112 16.812 77.3655 16.726 77.6793 16.5744H80.8356V16.5269C80.4761 16.3051 80.2799 15.7981 80.2799 15.1486V8.2254H80.231ZM75.3967 12.2494C75.364 13.295 75.3477 14.4198 75.3477 15.2753C74.9391 15.6238 74.5631 15.7506 74.2362 15.7506C73.7296 15.7505 73.4354 15.3228 73.4354 14.5308C73.4354 13.5802 73.795 12.5663 75.3967 12.2494ZM79.1686 4.85102C78.5148 4.85104 77.9919 5.42132 77.9919 6.15006C77.9919 6.84711 78.5148 7.43329 79.1686 7.43331C79.8223 7.43331 80.3454 6.84712 80.3454 6.15006C80.3454 5.42131 79.8223 4.85102 79.1686 4.85102Z" fill="white"/>
</svg>
